<svg width="182" height="182" viewBox="0 0 182 182" fill="none" xmlns="http://www.w3.org/2000/svg">
<rect width="182" height="182" fill="white"/>
<path d="M90.3479 129.869C90.6385 129.654 91.035 129.654 91.3256 129.869L134.992 162.099H46.6811L90.3479 129.869ZM165.63 75.6167L138.147 160.199L121.238 107.677C121.132 107.347 121.244 106.987 121.516 106.775L121.547 106.752L165.63 75.6167ZM16.0493 75.6333L59.9382 106.753C60.2306 106.961 60.3552 107.333 60.2464 107.675L43.5171 160.171L16.0493 75.6333ZM165.084 72.3349L110.64 72.335C110.285 72.335 109.97 72.1081 109.859 71.7717L92.4983 19.5982L165.084 72.3349ZM89.1999 19.5803L72.033 71.769C71.9219 72.1068 71.6065 72.335 71.251 72.335L16.5895 72.3349L89.1999 19.5803Z" fill="black"/>
</svg>
